<?xml version="1.0" encoding="utf-8"?>
<!-- Generator: Adobe Illustrator 19.1.0, SVG Export Plug-In . SVG Version: 6.00 Build 0)  -->
<svg version="1.1" id="Layer_1" xmlns="http://www.w3.org/2000/svg" xmlns:xlink="http://www.w3.org/1999/xlink" x="0px" y="0px"
	 viewBox="0 0 300 150" style="enable-background:new 0 0 300 150;" xml:space="preserve">
<style type="text/css">
	.st0{fill:#06455F;}
</style>
<g>
	<g>
		<path class="st0" d="M14.1,96.3c2.2,0,4,0.6,5.3,1.7c1.4,1.2,2,2.7,2,4.6c0,2-0.7,3.6-2.1,4.8c-1.4,1.2-3.3,1.8-5.6,1.8H9.9v5.9
			H7.2V96.3H14.1z M14,106.9c2.9,0,4.8-1.7,4.8-4.2c0-2.4-1.9-3.9-4.8-3.9H9.9v8.1H14z"/>
		<path class="st0" d="M41.6,115.2H39v-8.1H28.6v8.1h-2.6V96.3h2.6v8.4H39v-8.4h2.7V115.2z"/>
		<path class="st0" d="M50.4,115.2h-2.6V96.3h2.6V115.2z"/>
		<path class="st0" d="M69.4,115.2H56.5V96.3h2.6v16.5h10.2V115.2z"/>
		<path class="st0" d="M76.6,115.2H74V96.3h2.6V115.2z"/>
		<path class="st0" d="M89.6,96.3c2.2,0,4,0.6,5.3,1.7c1.4,1.2,2,2.7,2,4.6c0,2-0.7,3.6-2.1,4.8c-1.4,1.2-3.3,1.8-5.6,1.8h-3.9v5.9
			h-2.6V96.3H89.6z M89.5,106.9c2.9,0,4.8-1.7,4.8-4.2c0-2.4-1.9-3.9-4.8-3.9h-4.1v8.1H89.5z"/>
		<path class="st0" d="M108.3,96.3c2.2,0,4,0.6,5.3,1.7c1.4,1.2,2,2.7,2,4.6c0,2-0.7,3.6-2.1,4.8c-1.4,1.2-3.3,1.8-5.6,1.8h-3.9v5.9
			h-2.6V96.3H108.3z M108.2,106.9c2.9,0,4.8-1.7,4.8-4.2c0-2.4-1.9-3.9-4.8-3.9h-4.1v8.1H108.2z"/>
		<path class="st0" d="M122.8,104.6h9.7v2.4h-9.7v5.7h10.8v2.4h-13.4V96.3h13.4v2.4h-10.8V104.6z"/>
		<path class="st0" d="M162.6,108.2h2.7c-0.4,2.2-1.5,4-3.1,5.3c-1.6,1.4-3.6,2-5.9,2c-2.7,0-5.1-0.9-7-2.8c-1.9-1.9-2.9-4.2-2.9-7
			c0-2.8,0.9-5.1,2.9-7c1.9-1.9,4.2-2.8,7-2.8c2.3,0,4.3,0.7,5.9,2c1.6,1.4,2.7,3.1,3.1,5.3h-2.7c-0.8-3-3.1-4.8-6.3-4.8
			c-2,0-3.7,0.7-5.1,2.1c-1.4,1.4-2.1,3.1-2.1,5.2c0,2.1,0.7,3.8,2.1,5.2c1.4,1.4,3.1,2.1,5.1,2.1
			C159.5,113,161.8,111.2,162.6,108.2z"/>
		<path class="st0" d="M172.8,110.3l-2.1,4.9h-2.8l8.4-19h2.5l8.4,19h-2.8l-2.1-4.9H172.8z M177.5,99.4l-3.7,8.5h7.3L177.5,99.4z"/>
		<path class="st0" d="M206.7,107c0,2.6-0.8,4.7-2.3,6.2c-1.5,1.6-3.5,2.4-5.9,2.4c-2.5,0-4.4-0.8-5.9-2.4c-1.5-1.6-2.2-3.7-2.2-6.2
			V96.3h2.6V107c0,1.8,0.5,3.3,1.5,4.4c1,1.1,2.4,1.7,4,1.7c1.6,0,3-0.6,4-1.7c1-1.1,1.6-2.6,1.6-4.4V96.3h2.6V107z"/>
		<path class="st0" d="M219.4,96.3c2.9,0,5.3,0.9,7.2,2.6c1.9,1.7,2.8,4,2.8,6.7c0,2.8-0.9,5-2.8,6.9c-1.9,1.8-4.2,2.7-7.2,2.7h-6.8
			V96.3H219.4z M219.4,112.7c2.1,0,3.8-0.7,5.2-2c1.4-1.4,2.1-3.1,2.1-5.1c0-2-0.7-3.6-2.1-4.9c-1.4-1.3-3.1-2-5.2-2h-4.2v14H219.4z
			"/>
		<path class="st0" d="M237.3,108.6v6.5h-2.6V96.3h7.4c2.1,0,3.9,0.6,5.2,1.7c1.4,1.1,2,2.6,2,4.5c0,3-1.8,5.1-4.7,5.9l5.7,6.8H247
			l-5.5-6.5H237.3z M241.9,106.2c2.7,0,4.7-1.4,4.7-3.7c0-1.1-0.4-2-1.3-2.7c-0.9-0.7-2-1-3.4-1h-4.7v7.5H241.9z"/>
		<path class="st0" d="M263.2,95.9c2.7,0,5,1,6.9,2.9c1.9,1.9,2.9,4.2,2.9,6.9c0,2.7-1,5-2.9,7c-1.9,1.9-4.2,2.9-6.9,2.9
			c-2.7,0-5-0.9-7-2.9c-1.9-1.9-2.9-4.2-2.9-7c0-2.7,0.9-5,2.9-6.9C258.2,96.9,260.5,95.9,263.2,95.9z M268.3,111
			c1.4-1.4,2.1-3.2,2.1-5.2c0-2-0.7-3.8-2.1-5.2c-1.4-1.4-3.1-2.2-5.1-2.2c-2,0-3.7,0.7-5.1,2.2c-1.4,1.4-2,3.2-2,5.2
			c0,2,0.7,3.8,2,5.2c1.4,1.4,3.1,2.1,5.1,2.1C265.2,113.1,266.9,112.4,268.3,111z"/>
		<path class="st0" d="M285.3,108.6v6.5h-2.7v-6.5l-7.7-12.3h2.9l6.1,9.8l6.1-9.8h2.9L285.3,108.6z"/>
	</g>
	<g>
		<path class="st0" d="M170.2,26.2L159.6,7.9h-21.2l-10.4,18l0,52.9h2.1l9.2-15.9l9.2,15.9H169v-2.5h-19.1l-9.2-15.9l9.2-15.9h9.6
			l0,0h9.4v-2.4h-8L170.2,26.2z M158.2,42.1h-9.7l-10.6,18.3l0,0l-7.5,12.9v-44l0-2.8l9.4-16.2h18.4l9.2,15.9L158.2,42.1z"/>
	</g>
	<g>
		<path class="st0" d="M62.5,128.1c1.1,0,2,0.3,2.6,0.9c0.6,0.6,0.9,1.4,0.9,2.5c0,1.1-0.3,1.9-0.9,2.5c-0.6,0.6-1.4,0.9-2.6,0.9
			h-3.4v4.6h-1.5v-11.3H62.5z M62,133.5c0.9,0,1.5-0.2,1.9-0.5c0.4-0.4,0.6-0.9,0.6-1.5c0-0.7-0.2-1.2-0.6-1.5
			c-0.4-0.4-1-0.5-1.9-0.5h-2.9v4.1H62z"/>
		<path class="st0" d="M73.5,138.9c-0.6,0.5-1.4,0.7-2.3,0.7c-0.7,0-1.2-0.1-1.7-0.3c-0.5-0.2-0.9-0.5-1.2-0.9
			c-0.3-0.4-0.6-0.8-0.7-1.4c-0.2-0.5-0.3-1.1-0.3-1.7c0-0.6,0.1-1.2,0.3-1.7c0.2-0.5,0.5-1,0.8-1.3c0.3-0.4,0.8-0.7,1.2-0.9
			c0.5-0.2,1-0.3,1.5-0.3c0.7,0,1.3,0.2,1.8,0.5c0.5,0.3,0.9,0.7,1.2,1.1c0.3,0.5,0.5,1,0.6,1.5c0.1,0.5,0.2,1.1,0.1,1.6h-6.1
			c0,0.4,0,0.7,0.1,1c0.1,0.3,0.2,0.6,0.5,0.9c0.2,0.2,0.5,0.4,0.8,0.6c0.3,0.1,0.7,0.2,1.2,0.2c0.6,0,1-0.1,1.4-0.4
			c0.4-0.3,0.6-0.7,0.7-1.2h1.3C74.5,137.7,74.1,138.4,73.5,138.9z M73.1,133.6c-0.1-0.3-0.3-0.5-0.5-0.7c-0.2-0.2-0.5-0.4-0.7-0.5
			c-0.3-0.1-0.6-0.2-0.9-0.2c-0.3,0-0.7,0.1-0.9,0.2c-0.3,0.1-0.5,0.3-0.7,0.5c-0.2,0.2-0.4,0.5-0.5,0.7c-0.1,0.3-0.2,0.6-0.2,0.9
			h4.7C73.3,134.2,73.3,133.9,73.1,133.6z M71.5,127.2l-1.5,2.6h1l2.2-2.6H71.5z"/>
		<path class="st0" d="M82.2,139.4v-1.1h0c-0.2,0.5-0.6,0.8-1,1c-0.5,0.2-1,0.3-1.6,0.3c-0.6,0-1.2-0.1-1.7-0.3
			c-0.5-0.2-0.9-0.5-1.2-0.9c-0.3-0.4-0.5-0.8-0.7-1.4c-0.2-0.5-0.2-1.1-0.2-1.6c0-0.6,0.1-1.1,0.2-1.6c0.2-0.5,0.4-1,0.7-1.4
			c0.3-0.4,0.7-0.7,1.2-0.9c0.5-0.2,1-0.3,1.6-0.3c0.2,0,0.4,0,0.7,0.1c0.2,0,0.5,0.1,0.7,0.2c0.2,0.1,0.5,0.2,0.7,0.4
			c0.2,0.2,0.4,0.4,0.5,0.6h0v-4.2h1.3v11.3H82.2z M77.4,136.5c0.1,0.4,0.3,0.7,0.5,1c0.2,0.3,0.5,0.5,0.8,0.7
			c0.3,0.2,0.7,0.3,1.1,0.3c0.5,0,0.8-0.1,1.2-0.3c0.3-0.2,0.6-0.4,0.8-0.7c0.2-0.3,0.3-0.6,0.4-1c0.1-0.4,0.1-0.7,0.1-1.1
			c0-0.4,0-0.8-0.1-1.2c-0.1-0.4-0.2-0.7-0.5-1c-0.2-0.3-0.5-0.5-0.8-0.7c-0.3-0.2-0.7-0.3-1.2-0.3c-0.5,0-0.8,0.1-1.2,0.3
			c-0.3,0.2-0.6,0.4-0.8,0.7c-0.2,0.3-0.3,0.6-0.4,1c-0.1,0.4-0.1,0.8-0.1,1.2C77.2,135.8,77.3,136.2,77.4,136.5z"/>
		<path class="st0" d="M85.8,129.8v-1.6h1.3v1.6H85.8z M87.1,131.2v8.2h-1.3v-8.2H87.1z"/>
		<path class="st0" d="M94.2,132.7c-0.3-0.3-0.8-0.4-1.4-0.4c-0.5,0-0.9,0.1-1.2,0.3c-0.3,0.2-0.6,0.4-0.8,0.7
			c-0.2,0.3-0.3,0.6-0.4,1c-0.1,0.4-0.1,0.8-0.1,1.2c0,0.4,0,0.7,0.1,1.1c0.1,0.4,0.2,0.7,0.4,1c0.2,0.3,0.4,0.5,0.7,0.7
			c0.3,0.2,0.7,0.3,1.1,0.3c0.7,0,1.2-0.2,1.6-0.5c0.4-0.3,0.6-0.8,0.7-1.5h1.4c-0.1,1-0.5,1.8-1.1,2.3c-0.6,0.5-1.4,0.8-2.5,0.8
			c-0.6,0-1.2-0.1-1.7-0.3c-0.5-0.2-0.9-0.5-1.2-0.9c-0.3-0.4-0.6-0.8-0.7-1.3c-0.2-0.5-0.2-1.1-0.2-1.7c0-0.6,0.1-1.2,0.2-1.7
			c0.2-0.5,0.4-1,0.7-1.4c0.3-0.4,0.7-0.7,1.2-0.9c0.5-0.2,1-0.3,1.7-0.3c0.5,0,0.9,0.1,1.3,0.2s0.8,0.3,1.1,0.5
			c0.3,0.2,0.6,0.5,0.8,0.9s0.3,0.8,0.4,1.3h-1.4C94.7,133.4,94.5,133,94.2,132.7z"/>
		<path class="st0" d="M103.4,139.4v-1.3h0c-0.3,0.5-0.7,0.9-1.1,1.1c-0.4,0.2-1,0.4-1.6,0.4c-0.5,0-1-0.1-1.3-0.2
			c-0.4-0.1-0.6-0.3-0.9-0.6c-0.2-0.3-0.4-0.6-0.5-0.9c-0.1-0.4-0.1-0.8-0.1-1.2v-5.4h1.3v5.5c0,0.5,0.1,0.9,0.4,1.2
			c0.3,0.3,0.7,0.4,1.2,0.4c0.4,0,0.8-0.1,1.1-0.2c0.3-0.1,0.6-0.3,0.8-0.5c0.2-0.2,0.4-0.5,0.5-0.8c0.1-0.3,0.1-0.7,0.1-1v-4.6h1.3
			v8.2H103.4z"/>
		<path class="st0" d="M107.9,131.2v1.7h0c0.3-0.7,0.7-1.2,1.2-1.5c0.5-0.3,1.1-0.5,1.8-0.4v1.4c-0.5,0-1,0.1-1.4,0.2
			c-0.4,0.1-0.7,0.4-0.9,0.6c-0.2,0.3-0.4,0.6-0.5,1c-0.1,0.4-0.2,0.9-0.2,1.4v3.6h-1.3v-8.2H107.9z"/>
		<path class="st0" d="M117.6,138.9c-0.6,0.5-1.4,0.7-2.3,0.7c-0.7,0-1.2-0.1-1.7-0.3c-0.5-0.2-0.9-0.5-1.2-0.9
			c-0.3-0.4-0.6-0.8-0.7-1.4c-0.2-0.5-0.3-1.1-0.3-1.7c0-0.6,0.1-1.2,0.3-1.7c0.2-0.5,0.5-1,0.8-1.3c0.3-0.4,0.8-0.7,1.2-0.9
			c0.5-0.2,1-0.3,1.5-0.3c0.7,0,1.3,0.2,1.8,0.5c0.5,0.3,0.9,0.7,1.2,1.1c0.3,0.5,0.5,1,0.6,1.5c0.1,0.5,0.2,1.1,0.1,1.6h-6.1
			c0,0.4,0,0.7,0.1,1c0.1,0.3,0.2,0.6,0.5,0.9c0.2,0.2,0.5,0.4,0.8,0.6c0.3,0.1,0.7,0.2,1.2,0.2c0.6,0,1-0.1,1.4-0.4
			c0.4-0.3,0.6-0.7,0.7-1.2h1.3C118.6,137.7,118.2,138.4,117.6,138.9z M117.2,133.6c-0.1-0.3-0.3-0.5-0.5-0.7
			c-0.2-0.2-0.4-0.4-0.7-0.5c-0.3-0.1-0.6-0.2-0.9-0.2c-0.3,0-0.7,0.1-0.9,0.2c-0.3,0.1-0.5,0.3-0.7,0.5c-0.2,0.2-0.4,0.5-0.5,0.7
			c-0.1,0.3-0.2,0.6-0.2,0.9h4.7C117.4,134.2,117.4,133.9,117.2,133.6z"/>
		<path class="st0" d="M129.2,134.4v1.3h-4.6v-1.3H129.2z"/>
		<path class="st0" d="M140.7,128.1c1.1,0,2,0.3,2.6,0.9c0.6,0.6,0.9,1.4,0.9,2.5c0,1.1-0.3,1.9-0.9,2.5c-0.6,0.6-1.4,0.9-2.6,0.9
			h-3.5v4.6h-1.5v-11.3H140.7z M140.2,133.5c0.9,0,1.5-0.2,1.9-0.5c0.4-0.4,0.6-0.9,0.6-1.5c0-0.7-0.2-1.2-0.6-1.5
			c-0.4-0.4-1-0.5-1.9-0.5h-2.9v4.1H140.2z"/>
		<path class="st0" d="M145.7,133.7c0.2-0.5,0.4-1,0.8-1.4c0.3-0.4,0.8-0.7,1.2-0.9c0.5-0.2,1.1-0.3,1.7-0.3c0.7,0,1.2,0.1,1.7,0.3
			c0.5,0.2,0.9,0.5,1.2,0.9c0.3,0.4,0.6,0.8,0.8,1.4c0.2,0.5,0.3,1.1,0.3,1.7c0,0.6-0.1,1.2-0.3,1.7c-0.2,0.5-0.4,1-0.8,1.4
			c-0.3,0.4-0.8,0.7-1.2,0.9c-0.5,0.2-1.1,0.3-1.7,0.3c-0.6,0-1.2-0.1-1.7-0.3c-0.5-0.2-0.9-0.5-1.2-0.9c-0.3-0.4-0.6-0.8-0.8-1.4
			c-0.2-0.5-0.3-1.1-0.3-1.7C145.4,134.7,145.5,134.2,145.7,133.7z M147,136.7c0.1,0.4,0.3,0.7,0.5,1c0.2,0.3,0.5,0.5,0.8,0.6
			c0.3,0.1,0.6,0.2,1,0.2s0.7-0.1,1-0.2c0.3-0.1,0.6-0.3,0.8-0.6c0.2-0.3,0.4-0.6,0.5-1c0.1-0.4,0.2-0.8,0.2-1.3
			c0-0.5-0.1-0.9-0.2-1.3c-0.1-0.4-0.3-0.7-0.5-1c-0.2-0.3-0.5-0.5-0.8-0.6c-0.3-0.1-0.6-0.2-1-0.2s-0.7,0.1-1,0.2
			c-0.3,0.1-0.6,0.3-0.8,0.6c-0.2,0.3-0.4,0.6-0.5,1c-0.1,0.4-0.2,0.8-0.2,1.3C146.8,135.8,146.9,136.3,147,136.7z"/>
		<path class="st0" d="M161,139.4v-1.1h0c-0.2,0.5-0.6,0.8-1,1c-0.5,0.2-1,0.3-1.6,0.3c-0.6,0-1.2-0.1-1.7-0.3
			c-0.5-0.2-0.9-0.5-1.2-0.9c-0.3-0.4-0.5-0.8-0.7-1.4c-0.2-0.5-0.2-1.1-0.2-1.6c0-0.6,0.1-1.1,0.2-1.6c0.1-0.5,0.4-1,0.7-1.4
			c0.3-0.4,0.7-0.7,1.2-0.9c0.5-0.2,1-0.3,1.6-0.3c0.2,0,0.4,0,0.7,0.1c0.2,0,0.5,0.1,0.7,0.2c0.2,0.1,0.5,0.2,0.7,0.4
			c0.2,0.2,0.4,0.4,0.5,0.6h0v-4.2h1.3v11.3H161z M156.2,136.5c0.1,0.4,0.3,0.7,0.5,1c0.2,0.3,0.5,0.5,0.8,0.7
			c0.3,0.2,0.7,0.3,1.1,0.3c0.5,0,0.8-0.1,1.2-0.3c0.3-0.2,0.6-0.4,0.8-0.7c0.2-0.3,0.3-0.6,0.4-1c0.1-0.4,0.1-0.7,0.1-1.1
			c0-0.4,0-0.8-0.1-1.2c-0.1-0.4-0.2-0.7-0.5-1c-0.2-0.3-0.5-0.5-0.8-0.7c-0.3-0.2-0.7-0.3-1.2-0.3c-0.5,0-0.8,0.1-1.2,0.3
			c-0.3,0.2-0.6,0.4-0.8,0.7c-0.2,0.3-0.3,0.6-0.4,1c-0.1,0.4-0.1,0.8-0.1,1.2C156,135.8,156.1,136.2,156.2,136.5z"/>
		<path class="st0" d="M164.3,133.7c0.2-0.5,0.4-1,0.8-1.4c0.3-0.4,0.8-0.7,1.2-0.9c0.5-0.2,1.1-0.3,1.7-0.3c0.7,0,1.2,0.1,1.7,0.3
			c0.5,0.2,0.9,0.5,1.2,0.9c0.3,0.4,0.6,0.8,0.8,1.4c0.2,0.5,0.3,1.1,0.3,1.7c0,0.6-0.1,1.2-0.3,1.7c-0.2,0.5-0.4,1-0.8,1.4
			c-0.3,0.4-0.8,0.7-1.2,0.9c-0.5,0.2-1.1,0.3-1.7,0.3c-0.6,0-1.2-0.1-1.7-0.3c-0.5-0.2-0.9-0.5-1.2-0.9c-0.3-0.4-0.6-0.8-0.8-1.4
			c-0.2-0.5-0.3-1.1-0.3-1.7C164,134.7,164.1,134.2,164.3,133.7z M165.7,136.7c0.1,0.4,0.3,0.7,0.5,1c0.2,0.3,0.5,0.5,0.8,0.6
			c0.3,0.1,0.6,0.2,1,0.2c0.3,0,0.7-0.1,1-0.2c0.3-0.1,0.6-0.3,0.8-0.6c0.2-0.3,0.4-0.6,0.5-1c0.1-0.4,0.2-0.8,0.2-1.3
			c0-0.5-0.1-0.9-0.2-1.3c-0.1-0.4-0.3-0.7-0.5-1c-0.2-0.3-0.5-0.5-0.8-0.6c-0.3-0.1-0.6-0.2-1-0.2c-0.4,0-0.7,0.1-1,0.2
			c-0.3,0.1-0.6,0.3-0.8,0.6c-0.2,0.3-0.4,0.6-0.5,1c-0.1,0.4-0.2,0.8-0.2,1.3C165.5,135.8,165.5,136.3,165.7,136.7z"/>
		<path class="st0" d="M175.1,128.1v11.3h-1.3v-11.3H175.1z"/>
		<path class="st0" d="M177,133.7c0.2-0.5,0.4-1,0.8-1.4c0.3-0.4,0.8-0.7,1.2-0.9c0.5-0.2,1.1-0.3,1.7-0.3c0.7,0,1.2,0.1,1.7,0.3
			c0.5,0.2,0.9,0.5,1.2,0.9c0.3,0.4,0.6,0.8,0.8,1.4c0.2,0.5,0.3,1.1,0.3,1.7c0,0.6-0.1,1.2-0.3,1.7c-0.2,0.5-0.4,1-0.8,1.4
			c-0.3,0.4-0.8,0.7-1.2,0.9c-0.5,0.2-1.1,0.3-1.7,0.3c-0.6,0-1.2-0.1-1.7-0.3c-0.5-0.2-0.9-0.5-1.2-0.9c-0.3-0.4-0.6-0.8-0.8-1.4
			c-0.2-0.5-0.3-1.1-0.3-1.7C176.8,134.7,176.9,134.2,177,133.7z M178.4,136.7c0.1,0.4,0.3,0.7,0.5,1c0.2,0.3,0.5,0.5,0.8,0.6
			c0.3,0.1,0.6,0.2,1,0.2c0.3,0,0.7-0.1,1-0.2c0.3-0.1,0.6-0.3,0.8-0.6c0.2-0.3,0.4-0.6,0.5-1c0.1-0.4,0.2-0.8,0.2-1.3
			c0-0.5-0.1-0.9-0.2-1.3c-0.1-0.4-0.3-0.7-0.5-1c-0.2-0.3-0.5-0.5-0.8-0.6c-0.3-0.1-0.6-0.2-1-0.2c-0.3,0-0.7,0.1-1,0.2
			c-0.3,0.1-0.6,0.3-0.8,0.6c-0.2,0.3-0.4,0.6-0.5,1c-0.1,0.4-0.2,0.8-0.2,1.3C178.2,135.8,178.3,136.3,178.4,136.7z"/>
		<path class="st0" d="M192.5,141.7c-0.6,0.7-1.6,1-2.9,1c-0.4,0-0.8,0-1.2-0.1c-0.4-0.1-0.8-0.2-1.1-0.4c-0.3-0.2-0.6-0.4-0.8-0.7
			c-0.2-0.3-0.3-0.7-0.3-1.1h1.3c0,0.2,0.1,0.4,0.2,0.6c0.1,0.2,0.3,0.3,0.5,0.4c0.2,0.1,0.4,0.2,0.7,0.2c0.2,0,0.5,0.1,0.7,0.1
			c0.4,0,0.8-0.1,1.1-0.2c0.3-0.2,0.6-0.4,0.8-0.6c0.2-0.3,0.3-0.6,0.4-1c0.1-0.4,0.1-0.8,0.1-1.2V138h0c-0.2,0.5-0.6,0.9-1,1.1
			c-0.5,0.2-1,0.4-1.5,0.4c-0.6,0-1.1-0.1-1.6-0.3c-0.5-0.2-0.8-0.5-1.1-0.9c-0.3-0.4-0.5-0.8-0.7-1.3c-0.2-0.5-0.2-1-0.2-1.6
			c0-0.5,0.1-1,0.2-1.5c0.1-0.5,0.3-1,0.6-1.4c0.3-0.4,0.7-0.8,1.2-1c0.5-0.3,1.1-0.4,1.8-0.4c0.5,0,1,0.1,1.4,0.3
			c0.4,0.2,0.8,0.6,1,1h0v-1.2h1.3v7.5C193.4,140.1,193.1,141.1,192.5,141.7z M190.8,138.1c0.3-0.2,0.6-0.4,0.8-0.7
			c0.2-0.3,0.3-0.6,0.4-1c0.1-0.4,0.1-0.8,0.1-1.1c0-0.4,0-0.7-0.1-1.1c-0.1-0.3-0.2-0.7-0.4-0.9c-0.2-0.3-0.4-0.5-0.7-0.7
			c-0.3-0.2-0.7-0.3-1.1-0.3c-0.4,0-0.8,0.1-1.1,0.2c-0.3,0.2-0.6,0.4-0.8,0.7c-0.2,0.3-0.3,0.6-0.4,0.9c-0.1,0.4-0.1,0.7-0.1,1.1
			c0,0.4,0,0.7,0.1,1.1c0.1,0.4,0.2,0.7,0.4,1c0.2,0.3,0.4,0.5,0.7,0.7c0.3,0.2,0.7,0.3,1.1,0.3
			C190.1,138.3,190.5,138.2,190.8,138.1z"/>
		<path class="st0" d="M201,139.4v-1.3h0c-0.3,0.5-0.6,0.9-1.1,1.1c-0.4,0.2-1,0.4-1.6,0.4c-0.5,0-1-0.1-1.3-0.2
			c-0.4-0.1-0.6-0.3-0.9-0.6c-0.2-0.3-0.4-0.6-0.5-0.9c-0.1-0.4-0.1-0.8-0.1-1.2v-5.4h1.3v5.5c0,0.5,0.1,0.9,0.4,1.2
			c0.3,0.3,0.7,0.4,1.2,0.4c0.4,0,0.8-0.1,1.1-0.2c0.3-0.1,0.5-0.3,0.8-0.5c0.2-0.2,0.3-0.5,0.5-0.8c0.1-0.3,0.1-0.7,0.1-1v-4.6h1.3
			v8.2H201z"/>
		<path class="st0" d="M210.2,138.9c-0.6,0.5-1.4,0.7-2.3,0.7c-0.7,0-1.2-0.1-1.7-0.3c-0.5-0.2-0.9-0.5-1.2-0.9
			c-0.3-0.4-0.6-0.8-0.7-1.4c-0.2-0.5-0.3-1.1-0.3-1.7c0-0.6,0.1-1.2,0.3-1.7c0.2-0.5,0.5-1,0.8-1.3c0.3-0.4,0.8-0.7,1.2-0.9
			c0.5-0.2,1-0.3,1.5-0.3c0.7,0,1.3,0.2,1.8,0.5c0.5,0.3,0.9,0.7,1.2,1.1c0.3,0.5,0.5,1,0.6,1.5c0.1,0.5,0.2,1.1,0.1,1.6h-6.1
			c0,0.4,0,0.7,0.1,1c0.1,0.3,0.2,0.6,0.5,0.9c0.2,0.2,0.5,0.4,0.8,0.6c0.3,0.1,0.7,0.2,1.2,0.2c0.6,0,1-0.1,1.4-0.4
			c0.4-0.3,0.6-0.7,0.7-1.2h1.3C211.2,137.7,210.8,138.4,210.2,138.9z M209.9,133.6c-0.1-0.3-0.3-0.5-0.5-0.7
			c-0.2-0.2-0.4-0.4-0.7-0.5c-0.3-0.1-0.6-0.2-0.9-0.2c-0.4,0-0.7,0.1-0.9,0.2c-0.3,0.1-0.5,0.3-0.7,0.5c-0.2,0.2-0.4,0.5-0.5,0.7
			c-0.1,0.3-0.2,0.6-0.2,0.9h4.7C210.1,134.2,210,133.9,209.9,133.6z"/>
		<path class="st0" d="M221.6,128.1c1.7,0,3.1,0.4,4,1.3c0.9,0.9,1.4,2.2,1.4,4c0,0.9-0.1,1.8-0.3,2.5c-0.2,0.7-0.5,1.3-1,1.8
			c-0.4,0.5-1,0.9-1.7,1.1c-0.7,0.3-1.5,0.4-2.4,0.4h-3.9v-11.3H221.6z M221.7,138.2c0.2,0,0.4,0,0.6,0c0.3,0,0.5-0.1,0.8-0.2
			c0.3-0.1,0.6-0.2,0.8-0.4c0.3-0.2,0.5-0.4,0.8-0.8c0.2-0.3,0.4-0.7,0.5-1.2c0.1-0.5,0.2-1.1,0.2-1.8c0-0.7-0.1-1.3-0.2-1.8
			c-0.1-0.5-0.3-1-0.6-1.4s-0.7-0.7-1.2-0.9c-0.5-0.2-1.1-0.3-1.8-0.3h-2.5v8.8H221.7z"/>
		<path class="st0" d="M230.7,137.7v1.8H229v-1.8H230.7z"/>
		<path class="st0" d="M241.2,128.1v1.3h-6.3v3.6h5.9v1.3h-5.9v3.9h6.3v1.3h-7.8v-11.3H241.2z"/>
	</g>
</g>
</svg>
